# xmcd
#
# Track frame offsets: 
#        150
#        15237
#        33615
#        56690
#        66230
#        81780
#        105575
#        119397
#        139457
#        162637
#        182200
#        198797
#        250872
#        270845
#        289582
#        311877
#        337755
#
# Disc length: 4805 seconds
#
# Revision: 0
# Processed by: cddbd v1.5.1PL2 Copyright (c) Steve Scherf et al.
# Submitted via: ExactAudioCopy v0.95b4
#
DISCID=f012c311
DTITLE=Loreena Mckennitt - Elemental [1985]+The Visit [1991]
DYEAR=1985
DGENRE=Country
TTITLE0=Blacksmith
TTITLE1=She Moved Through The Fair
TTITLE2=Stolen Child
TTITLE3=The Lark In The Clear Air
TTITLE4=Carrighfergus
TTITLE5=Kellswater
TTITLE6=Come By The Hills
TTITLE7=Lullaby
TTITLE8=All Souls Night
TTITLE9=Bonny Portmore
TTITLE10=Between The Shadows
TTITLE11=The Lady Of Shalott
TTITLE12=Greensleeves
TTITLE13=Tango To Evora
TTITLE14=Courtyard Lullaby
TTITLE15=The Old Ways
TTITLE16=Cymbeline
EXTD=
EXTT0=
EXTT1=
EXTT2=
EXTT3=
EXTT4=
EXTT5=
EXTT6=
EXTT7=
EXTT8=
EXTT9=
EXTT10=
EXTT11=
EXTT12=
EXTT13=
EXTT14=
EXTT15=
EXTT16=
PLAYORDER=
